<?xml version="1.0" encoding="UTF-8" standalone="no"?><!DOCTYPE svg PUBLIC "-//W3C//DTD SVG 1.1//EN" "http://www.w3.org/Graphics/SVG/1.1/DTD/svg11.dtd"><svg width="100%" height="100%" viewBox="0 0 376 367" version="1.1" xmlns="http://www.w3.org/2000/svg" xmlns:xlink="http://www.w3.org/1999/xlink" xml:space="preserve" xmlns:serif="http://www.serif.com/" style="fill-rule:evenodd;clip-rule:evenodd;stroke-linejoin:round;stroke-miterlimit:1.41421;"><rect id="logo_map" x="0" y="0" width="375.51" height="366.71" style="fill:none;"/><path d="M319.959,272.931c0,6.476 -5.249,11.726 -11.725,11.726c-16.687,0 -47.176,0 -64.477,0c-8.062,0 -15.604,3.984 -20.149,10.644c-12.287,18.007 -35.853,52.544 -35.853,52.544c0,0 -23.566,-34.537 -35.853,-52.544c-4.545,-6.66 -12.087,-10.644 -20.149,-10.644c-17.301,0 -47.79,0 -64.477,0c-6.476,0 -11.725,-5.25 -11.725,-11.726c0,-43.753 0,-197.204 0,-240.957c0,-3.11 1.235,-6.092 3.434,-8.291c2.199,-2.199 5.181,-3.435 8.291,-3.435c43.753,0 197.204,0 240.958,0c3.109,0 6.092,1.236 8.291,3.435c2.199,2.199 3.434,5.181 3.434,8.291c0,43.753 0,197.204 0,240.957Z" style="fill:#041f5f;"/><g><path d="M187.686,111.285l20.778,-43.694l74.281,166.495l-41.415,-0.005l-53.644,-122.796Z" style="fill:#f9cb61;"/><path d="M187.729,111.508l20.139,-43.033c-4.959,21.953 -1.652,78.689 5.693,102.04l-25.832,-59.007Z" style="fill:#ddab37;"/><path d="M208.464,67.591c0,0 -23.09,0 -34.788,-0.001c-4.029,0 -7.682,2.371 -9.324,6.051c-13.34,29.901 -71.587,160.456 -71.587,160.456l41.413,0.001l74.286,-166.507Z" style="fill:#fff;"/></g></svg>