<?xml version="1.0" encoding="UTF-8" standalone="no"?><!DOCTYPE svg PUBLIC "-//W3C//DTD SVG 1.1//EN" "http://www.w3.org/Graphics/SVG/1.1/DTD/svg11.dtd"><svg width="100%" height="100%" viewBox="0 0 1971 650" version="1.1" xmlns="http://www.w3.org/2000/svg" xmlns:xlink="http://www.w3.org/1999/xlink" xml:space="preserve" xmlns:serif="http://www.serif.com/" style="fill-rule:evenodd;clip-rule:evenodd;stroke-linejoin:round;stroke-miterlimit:1.41421;"><rect id="blog-positivo" serif:id="blog positivo" x="0" y="0" width="1970.93" height="649.824" style="fill:none;"/><g><g><g><path d="M359.56,124.816l100.311,-90.012l260.169,583.15l-145.056,-0.016l-215.424,-493.122Z" style="fill:#f9cb61;"/><path d="M358.292,122.477l99.49,-84.577c-17.368,76.893 -5.785,275.612 19.941,357.398l-119.431,-272.821Z" style="fill:#ddab37;"/><path d="M459.871,34.804c0,0 -110.022,-0.001 -138.423,-0.001c-4.03,0 -7.683,2.37 -9.325,6.05c-27.596,61.855 -257.488,577.142 -257.488,577.142l145.048,0.002l260.188,-583.193Z" style="fill:#041f5f;"/></g></g><g><path d="M858.451,518.454l0,-361.113l169.193,0c68.687,0 103.031,28.031 103.031,84.092c0,41.077 -22.391,70.454 -67.172,88.131c47.812,8.923 71.718,36.28 71.718,82.071c0,71.213 -37.627,106.819 -112.88,106.819l-163.89,0Zm161.112,-58.081c29.63,0 44.445,-15.151 44.445,-45.455c0,-37.542 -22.138,-56.313 -66.414,-56.313l-20.203,0l0,-43.182c55.556,-9.259 83.334,-32.492 83.334,-69.697c0,-20.203 -12.458,-30.304 -37.374,-30.304l-97.98,0l0,244.951l94.192,0Z" style="fill:#041f5f;fill-rule:nonzero;"/><rect x="1198.65" y="157.341" width="66.92" height="361.113" style="fill:#041f5f;fill-rule:nonzero;"/><path d="M1395.93,384.868c0,55.387 21.465,83.081 64.394,83.081c42.93,0 64.395,-27.694 64.395,-83.081c0,-54.041 -21.465,-81.061 -64.395,-81.061c-42.929,0 -64.394,27.02 -64.394,81.061Zm-66.92,1.01c0,-88.89 43.772,-133.334 131.314,-133.334c87.543,0 131.314,44.444 131.314,133.334c0,88.721 -43.771,133.081 -131.314,133.081c-87.206,0 -130.977,-44.36 -131.314,-133.081Z" style="fill:#041f5f;fill-rule:nonzero;"/><path d="M1824.77,313.403c-10.943,-4.041 -26.516,-6.061 -46.718,-6.061c-46.296,0 -69.445,25.505 -69.445,76.516c0,49.326 19.95,73.99 59.849,73.99c19.192,0 37.963,-4.546 56.314,-13.637l0,-130.808Zm66.919,184.849c0,77.442 -46.549,116.162 -139.647,116.162c-32.66,0 -61.616,-4.208 -86.869,-12.626l0,-53.031c25.758,8.418 54.882,12.627 87.374,12.627c48.148,0 72.223,-20.202 72.223,-60.607c-19.866,8.418 -41.246,12.627 -64.142,12.627c-78.788,0 -118.183,-43.014 -118.183,-129.041c0,-87.375 45.876,-131.062 137.627,-131.062c30.809,0 68.014,3.62 111.617,10.859l0,234.092Z" style="fill:#041f5f;fill-rule:nonzero;"/></g></g></svg>