<?xml version="1.0" encoding="UTF-8" standalone="no"?><!DOCTYPE svg PUBLIC "-//W3C//DTD SVG 1.1//EN" "http://www.w3.org/Graphics/SVG/1.1/DTD/svg11.dtd"><svg width="100%" height="100%" viewBox="0 0 1096 276" version="1.1" xmlns="http://www.w3.org/2000/svg" xmlns:xlink="http://www.w3.org/1999/xlink" xml:space="preserve" xmlns:serif="http://www.serif.com/" style="fill-rule:evenodd;clip-rule:evenodd;stroke-linejoin:round;stroke-miterlimit:1.41421;"><rect id="logo_inv" x="0" y="0" width="1095.44" height="275.347" style="fill:none;"/><g><g><g><g><path d="M129.464,66.374l36.61,-32.851l94.952,212.828l-52.94,-0.006l-78.622,-179.971Z" style="fill:#f9cb61;"/><path d="M129.001,65.52l36.311,-30.867c-6.339,28.063 -2.112,100.588 7.277,130.437l-43.588,-99.57Z" style="fill:#ddab37;"/><path d="M166.074,33.523c0,0 -32.107,0 -46.312,-0.001c-4.03,0 -7.683,2.371 -9.325,6.051c-15.477,34.691 -92.259,206.793 -92.259,206.793l52.937,0.001l94.959,-212.844Z" style="fill:#fff;"/></g></g></g><g><g><path d="M339.421,209.36l-24.964,0l55.71,-131.244l26.156,0l56.903,131.244l-26.157,0l-14.96,-35.794l-43.594,0l8.351,-21.109l26.433,0l-20.651,-49.285l-43.227,106.188Z" style="fill:#fff;fill-rule:nonzero;"/><path d="M549.964,112.992l0,96.368l-18.998,0l-2.937,-12.299c-11.074,8.199 -22.822,12.299 -35.243,12.299c-19.701,0 -29.552,-11.656 -29.552,-34.968l0,-61.4l24.321,0l0,60.757c0,10.647 4.65,15.97 13.95,15.97c7.893,0 15.939,-3.151 24.138,-9.453l0,-67.274l24.321,0Z" style="fill:#fff;fill-rule:nonzero;"/><path d="M633.942,138.139c-5.017,-3.304 -11.32,-4.956 -18.907,-4.956c-15.112,0 -22.669,8.475 -22.669,25.423c0,20.13 7.862,30.195 23.587,30.195c6.364,0 12.36,-0.887 17.989,-2.661l0,-48.001Zm24.321,65.439c-14.746,3.854 -29.155,5.782 -43.228,5.782c-31.143,0 -46.715,-16.704 -46.715,-50.112c0,-30.837 15.235,-46.256 45.706,-46.256c6.486,0 13.124,1.53 19.916,4.589l0,-39.465l24.321,0l0,125.462Z" style="fill:#fff;fill-rule:nonzero;"/><path d="M705.529,78.116l0,19.274l-24.321,0l0,-19.274l24.321,0Zm0,34.876l0,96.368l-24.321,0l0,-96.368l24.321,0Z" style="fill:#fff;fill-rule:nonzero;"/><path d="M729.868,97.39l17.989,0l3.671,15.602l24.23,0l0,19.274l-21.568,0l0,44.329c0,8.994 3.885,13.491 11.655,13.491l9.913,0l0,19.274l-21.66,0c-16.153,0 -24.23,-8.658 -24.23,-25.974l0,-85.996Z" style="fill:#fff;fill-rule:nonzero;"/><path d="M868.476,206.606c-7.954,1.836 -16.214,2.754 -24.78,2.754c-34.264,0 -51.396,-16.674 -51.396,-50.02c0,-30.899 17.132,-46.348 51.396,-46.348c8.566,0 16.826,0.918 24.78,2.753l0,19.274c-7.954,-1.836 -15.603,-2.753 -22.945,-2.753c-19.273,0 -28.91,9.024 -28.91,27.074c0,20.497 9.637,30.746 28.91,30.746c7.342,0 14.991,-0.918 22.945,-2.753l0,19.273Z" style="fill:#fff;fill-rule:nonzero;"/><path d="M905.93,160.809c0,20.13 7.802,30.195 23.404,30.195c15.602,0 23.403,-10.065 23.403,-30.195c0,-19.641 -7.801,-29.461 -23.403,-29.461c-15.602,0 -23.404,9.82 -23.404,29.461Zm-24.321,0.367c0,-32.306 15.908,-48.459 47.725,-48.459c31.816,0 47.725,16.153 47.725,48.459c0,32.245 -15.909,48.367 -47.725,48.367c-31.694,0 -47.603,-16.122 -47.725,-48.367Z" style="fill:#fff;fill-rule:nonzero;"/><path d="M993.543,209.36l0,-96.368l18.815,0l3.028,14.134c9.239,-9.423 19.763,-14.134 31.572,-14.134c22.823,0 34.234,11.87 34.234,35.61l0,60.758l-24.322,0l0,-60.758c0,-10.646 -5.292,-15.969 -15.877,-15.969c-7.893,0 -15.603,3.151 -23.129,9.453l0,67.274l-24.321,0Z" style="fill:#fff;fill-rule:nonzero;"/></g></g></g></svg>